<mxfile host="app.diagrams.net" modified="2020-12-25T06:38:01.463Z" agent="5.0 (Macintosh; Intel Mac OS X 11_0_1) AppleWebKit/537.36 (KHTML, like Gecko) Chrome/87.0.4280.88 Safari/537.36" etag="TdL080jlU_Y1cYHlXGYC" version="14.1.2" type="github">
  <diagram id="tH1zDseUI945wrasCAh4" name="Page-1">
    <mxGraphModel dx="1426" dy="722" grid="1" gridSize="10" guides="1" tooltips="1" connect="1" arrows="1" fold="1" page="1" pageScale="1" pageWidth="850" pageHeight="1100" math="0" shadow="0">
      <root>
        <mxCell id="0" />
        <mxCell id="1" parent="0" />
        <mxCell id="unxmOJQ1eHxqmyFc98eH-2" value="" style="rounded=1;arcSize=10;dashed=1;strokeColor=#000000;fillColor=none;gradientColor=none;dashPattern=8 3 1 3;strokeWidth=2;" parent="1" vertex="1">
          <mxGeometry x="77.5" y="80" width="120" height="400" as="geometry" />
        </mxCell>
        <mxCell id="unxmOJQ1eHxqmyFc98eH-3" value="" style="rounded=1;arcSize=10;dashed=1;dashPattern=8 3 1 3;strokeWidth=2;" parent="1" vertex="1">
          <mxGeometry x="390" y="110" width="650" height="380" as="geometry" />
        </mxCell>
        <mxCell id="unxmOJQ1eHxqmyFc98eH-4" value="随访管理" style="shape=ext;rounded=1;html=1;whiteSpace=wrap;strokeWidth=3;fillColor=#dae8fc;strokeColor=#6c8ebf;" parent="1" vertex="1">
          <mxGeometry x="92.5" y="120" width="80" height="40" as="geometry" />
        </mxCell>
        <UserObject label="患者端（公众号）" placeholders="1" name="Variable" id="unxmOJQ1eHxqmyFc98eH-8">
          <mxCell style="text;html=1;strokeColor=none;fillColor=none;align=center;verticalAlign=middle;whiteSpace=wrap;overflow=hidden;" parent="1" vertex="1">
            <mxGeometry x="72.5" y="80" width="135" height="30" as="geometry" />
          </mxCell>
        </UserObject>
        <mxCell id="unxmOJQ1eHxqmyFc98eH-9" style="edgeStyle=orthogonalEdgeStyle;rounded=0;orthogonalLoop=1;jettySize=auto;html=1;exitX=0.75;exitY=1;exitDx=0;exitDy=0;entryX=0.75;entryY=0.5;entryDx=0;entryDy=0;entryPerimeter=0;" parent="1" source="unxmOJQ1eHxqmyFc98eH-8" target="unxmOJQ1eHxqmyFc98eH-8" edge="1">
          <mxGeometry relative="1" as="geometry" />
        </mxCell>
        <mxCell id="unxmOJQ1eHxqmyFc98eH-12" value="量表统计分析" style="shape=ext;rounded=1;html=1;whiteSpace=wrap;strokeWidth=3;fillColor=#dae8fc;strokeColor=#6c8ebf;" parent="1" vertex="1">
          <mxGeometry x="92.5" y="190" width="80" height="40" as="geometry" />
        </mxCell>
        <mxCell id="unxmOJQ1eHxqmyFc98eH-13" value="智能问诊" style="shape=ext;rounded=1;html=1;whiteSpace=wrap;strokeWidth=3;fillColor=#dae8fc;strokeColor=#6c8ebf;" parent="1" vertex="1">
          <mxGeometry x="92.5" y="250" width="80" height="40" as="geometry" />
        </mxCell>
        <mxCell id="unxmOJQ1eHxqmyFc98eH-14" value="在线咨询" style="shape=ext;rounded=1;html=1;whiteSpace=wrap;strokeWidth=3;fillColor=#dae8fc;strokeColor=#6c8ebf;" parent="1" vertex="1">
          <mxGeometry x="92.5" y="310" width="80" height="40" as="geometry" />
        </mxCell>
        <mxCell id="unxmOJQ1eHxqmyFc98eH-15" value="外伤诊治" style="shape=ext;rounded=1;html=1;whiteSpace=wrap;strokeWidth=3;fillColor=#dae8fc;strokeColor=#6c8ebf;" parent="1" vertex="1">
          <mxGeometry x="92.5" y="370" width="80" height="40" as="geometry" />
        </mxCell>
        <mxCell id="unxmOJQ1eHxqmyFc98eH-16" value="......" style="shape=ext;rounded=1;html=1;whiteSpace=wrap;strokeWidth=3;fillColor=#dae8fc;strokeColor=#6c8ebf;" parent="1" vertex="1">
          <mxGeometry x="92.5" y="430" width="80" height="40" as="geometry" />
        </mxCell>
        <mxCell id="unxmOJQ1eHxqmyFc98eH-26" value="" style="rounded=1;arcSize=10;dashed=1;strokeColor=#000000;fillColor=none;gradientColor=none;dashPattern=8 3 1 3;strokeWidth=2;" parent="1" vertex="1">
          <mxGeometry x="80" y="500" width="120" height="460" as="geometry" />
        </mxCell>
        <mxCell id="unxmOJQ1eHxqmyFc98eH-27" value="随访管理" style="shape=ext;rounded=1;html=1;whiteSpace=wrap;strokeWidth=3;fillColor=#dae8fc;strokeColor=#6c8ebf;" parent="1" vertex="1">
          <mxGeometry x="97.5" y="550" width="80" height="40" as="geometry" />
        </mxCell>
        <UserObject label="管理端" placeholders="1" name="Variable" id="unxmOJQ1eHxqmyFc98eH-28">
          <mxCell style="text;html=1;strokeColor=none;fillColor=none;align=center;verticalAlign=middle;whiteSpace=wrap;overflow=hidden;" parent="1" vertex="1">
            <mxGeometry x="77.5" y="510" width="135" height="30" as="geometry" />
          </mxCell>
        </UserObject>
        <mxCell id="unxmOJQ1eHxqmyFc98eH-29" style="edgeStyle=orthogonalEdgeStyle;rounded=0;orthogonalLoop=1;jettySize=auto;html=1;exitX=0.75;exitY=1;exitDx=0;exitDy=0;entryX=0.75;entryY=0.5;entryDx=0;entryDy=0;entryPerimeter=0;" parent="1" source="unxmOJQ1eHxqmyFc98eH-28" target="unxmOJQ1eHxqmyFc98eH-28" edge="1">
          <mxGeometry relative="1" as="geometry" />
        </mxCell>
        <mxCell id="unxmOJQ1eHxqmyFc98eH-64" value="" style="edgeStyle=orthogonalEdgeStyle;rounded=0;orthogonalLoop=1;jettySize=auto;html=1;fontFamily=Verdana;" parent="1" source="unxmOJQ1eHxqmyFc98eH-65" target="unxmOJQ1eHxqmyFc98eH-27" edge="1">
          <mxGeometry relative="1" as="geometry" />
        </mxCell>
        <mxCell id="unxmOJQ1eHxqmyFc98eH-30" value="档案管理" style="shape=ext;rounded=1;html=1;whiteSpace=wrap;strokeWidth=3;fillColor=#dae8fc;strokeColor=#6c8ebf;" parent="1" vertex="1">
          <mxGeometry x="97.5" y="670" width="80" height="40" as="geometry" />
        </mxCell>
        <mxCell id="unxmOJQ1eHxqmyFc98eH-31" value="量表管理" style="shape=ext;rounded=1;html=1;whiteSpace=wrap;strokeWidth=3;fillColor=#dae8fc;strokeColor=#6c8ebf;" parent="1" vertex="1">
          <mxGeometry x="97.5" y="730" width="80" height="40" as="geometry" />
        </mxCell>
        <mxCell id="unxmOJQ1eHxqmyFc98eH-32" value="用户角色管理" style="shape=ext;rounded=1;html=1;whiteSpace=wrap;strokeWidth=3;fillColor=#dae8fc;strokeColor=#6c8ebf;" parent="1" vertex="1">
          <mxGeometry x="97.5" y="790" width="80" height="40" as="geometry" />
        </mxCell>
        <mxCell id="unxmOJQ1eHxqmyFc98eH-33" value="在线咨询" style="shape=ext;rounded=1;html=1;whiteSpace=wrap;strokeWidth=3;fillColor=#dae8fc;strokeColor=#6c8ebf;" parent="1" vertex="1">
          <mxGeometry x="97.5" y="850" width="80" height="40" as="geometry" />
        </mxCell>
        <mxCell id="unxmOJQ1eHxqmyFc98eH-34" value="......" style="shape=ext;rounded=1;html=1;whiteSpace=wrap;strokeWidth=3;fillColor=#dae8fc;strokeColor=#6c8ebf;" parent="1" vertex="1">
          <mxGeometry x="97.5" y="910" width="80" height="40" as="geometry" />
        </mxCell>
        <mxCell id="unxmOJQ1eHxqmyFc98eH-35" value="网关" style="rounded=1;whiteSpace=wrap;html=1;strokeColor=#d6b656;strokeWidth=3;fontFamily=Verdana;horizontal=1;align=center;verticalAlign=middle;direction=west;fillColor=#fff2cc;" parent="1" vertex="1">
          <mxGeometry x="220" y="80" width="60" height="880" as="geometry" />
        </mxCell>
        <mxCell id="unxmOJQ1eHxqmyFc98eH-36" value="OAuth2&lt;br&gt;授权" style="rounded=1;whiteSpace=wrap;html=1;strokeColor=#10739e;strokeWidth=3;fontFamily=Verdana;align=center;fillColor=#b1ddf0;" parent="1" vertex="1">
          <mxGeometry x="300" y="80" width="70" height="880" as="geometry" />
        </mxCell>
        <mxCell id="unxmOJQ1eHxqmyFc98eH-38" value="AI" style="text;html=1;strokeColor=none;fillColor=none;align=center;verticalAlign=middle;whiteSpace=wrap;rounded=0;fontFamily=Verdana;" parent="1" vertex="1">
          <mxGeometry x="410" y="140" width="40" height="20" as="geometry" />
        </mxCell>
        <mxCell id="unxmOJQ1eHxqmyFc98eH-41" value="AI 问诊" style="shape=ext;rounded=1;html=1;whiteSpace=wrap;strokeColor=#36393d;strokeWidth=3;fontFamily=Verdana;align=center;fillColor=#cce5ff;" parent="1" vertex="1">
          <mxGeometry x="410" y="200" width="120" height="80" as="geometry" />
        </mxCell>
        <mxCell id="unxmOJQ1eHxqmyFc98eH-42" value="用药推荐" style="shape=ext;rounded=1;html=1;whiteSpace=wrap;strokeColor=#36393d;strokeWidth=3;fontFamily=Verdana;align=center;fillColor=#cce5ff;" parent="1" vertex="1">
          <mxGeometry x="410" y="350" width="120" height="80" as="geometry" />
        </mxCell>
        <mxCell id="unxmOJQ1eHxqmyFc98eH-43" value="" style="rounded=1;whiteSpace=wrap;html=1;strokeColor=#000000;strokeWidth=3;fontFamily=Verdana;align=center;" parent="1" vertex="1">
          <mxGeometry x="550" y="180" width="440" height="130" as="geometry" />
        </mxCell>
        <mxCell id="unxmOJQ1eHxqmyFc98eH-44" value="字典" style="text;html=1;strokeColor=none;fillColor=none;align=center;verticalAlign=middle;whiteSpace=wrap;rounded=0;fontFamily=Verdana;" parent="1" vertex="1">
          <mxGeometry x="660" y="180" width="40" height="20" as="geometry" />
        </mxCell>
        <mxCell id="unxmOJQ1eHxqmyFc98eH-45" value="症状" style="rounded=1;whiteSpace=wrap;html=1;strokeColor=#36393d;strokeWidth=3;fontFamily=Verdana;align=center;fillColor=#cdeb8b;" parent="1" vertex="1">
          <mxGeometry x="570" y="210" width="80" height="70" as="geometry" />
        </mxCell>
        <mxCell id="unxmOJQ1eHxqmyFc98eH-46" value="疾病" style="rounded=1;whiteSpace=wrap;html=1;strokeColor=#36393d;strokeWidth=3;fontFamily=Verdana;align=center;fillColor=#cdeb8b;" parent="1" vertex="1">
          <mxGeometry x="670" y="210" width="80" height="70" as="geometry" />
        </mxCell>
        <mxCell id="unxmOJQ1eHxqmyFc98eH-47" value="药品" style="rounded=1;whiteSpace=wrap;html=1;strokeColor=#36393d;strokeWidth=3;fontFamily=Verdana;align=center;fillColor=#cdeb8b;" parent="1" vertex="1">
          <mxGeometry x="780" y="210" width="80" height="70" as="geometry" />
        </mxCell>
        <mxCell id="unxmOJQ1eHxqmyFc98eH-48" value="......" style="rounded=1;whiteSpace=wrap;html=1;strokeColor=#36393d;strokeWidth=3;fontFamily=Verdana;align=center;fillColor=#cdeb8b;" parent="1" vertex="1">
          <mxGeometry x="890" y="210" width="80" height="70" as="geometry" />
        </mxCell>
        <mxCell id="unxmOJQ1eHxqmyFc98eH-49" value="" style="rounded=1;whiteSpace=wrap;html=1;strokeColor=#000000;strokeWidth=3;fontFamily=Verdana;align=center;" parent="1" vertex="1">
          <mxGeometry x="550" y="330" width="440" height="120" as="geometry" />
        </mxCell>
        <mxCell id="unxmOJQ1eHxqmyFc98eH-50" value="诊断" style="rounded=1;whiteSpace=wrap;html=1;strokeColor=#0e8088;strokeWidth=3;fontFamily=Verdana;align=center;fillColor=#b0e3e6;" parent="1" vertex="1">
          <mxGeometry x="580" y="360" width="80" height="60" as="geometry" />
        </mxCell>
        <mxCell id="unxmOJQ1eHxqmyFc98eH-51" value="模型" style="text;html=1;strokeColor=none;fillColor=none;align=center;verticalAlign=middle;whiteSpace=wrap;rounded=0;fontFamily=Verdana;" parent="1" vertex="1">
          <mxGeometry x="660" y="330" width="40" height="20" as="geometry" />
        </mxCell>
        <mxCell id="unxmOJQ1eHxqmyFc98eH-52" value="追问" style="rounded=1;whiteSpace=wrap;html=1;strokeColor=#0e8088;strokeWidth=3;fontFamily=Verdana;align=center;fillColor=#b0e3e6;" parent="1" vertex="1">
          <mxGeometry x="680" y="360" width="80" height="60" as="geometry" />
        </mxCell>
        <mxCell id="unxmOJQ1eHxqmyFc98eH-53" value="NLP" style="rounded=1;whiteSpace=wrap;html=1;strokeColor=#0e8088;strokeWidth=3;fontFamily=Verdana;align=center;fillColor=#b0e3e6;" parent="1" vertex="1">
          <mxGeometry x="780" y="360" width="80" height="60" as="geometry" />
        </mxCell>
        <mxCell id="unxmOJQ1eHxqmyFc98eH-54" value="......" style="rounded=1;whiteSpace=wrap;html=1;strokeColor=#0e8088;strokeWidth=3;fontFamily=Verdana;align=center;fillColor=#b0e3e6;" parent="1" vertex="1">
          <mxGeometry x="880" y="360" width="80" height="60" as="geometry" />
        </mxCell>
        <mxCell id="unxmOJQ1eHxqmyFc98eH-56" value="" style="rounded=1;arcSize=10;dashed=1;strokeColor=#000000;fillColor=none;gradientColor=none;dashPattern=8 3 1 3;strokeWidth=2;fontFamily=Verdana;align=center;" parent="1" vertex="1">
          <mxGeometry x="400" y="520" width="500" height="420" as="geometry" />
        </mxCell>
        <mxCell id="unxmOJQ1eHxqmyFc98eH-57" value="微服务" style="text;html=1;strokeColor=none;fillColor=none;align=center;verticalAlign=middle;whiteSpace=wrap;rounded=0;fontFamily=Verdana;" parent="1" vertex="1">
          <mxGeometry x="440" y="540" width="40" height="20" as="geometry" />
        </mxCell>
        <mxCell id="unxmOJQ1eHxqmyFc98eH-58" value="用户服务" style="rounded=1;whiteSpace=wrap;html=1;strokeWidth=3;fontFamily=Verdana;align=center;fillColor=#60a917;strokeColor=#2D7600;fontColor=#ffffff;" parent="1" vertex="1">
          <mxGeometry x="470" y="570" width="100" height="100" as="geometry" />
        </mxCell>
        <mxCell id="unxmOJQ1eHxqmyFc98eH-59" value="档案服务" style="rounded=1;whiteSpace=wrap;html=1;strokeWidth=3;fontFamily=Verdana;align=center;fillColor=#60a917;strokeColor=#2D7600;fontColor=#ffffff;" parent="1" vertex="1">
          <mxGeometry x="470" y="690" width="100" height="100" as="geometry" />
        </mxCell>
        <mxCell id="unxmOJQ1eHxqmyFc98eH-60" value="随访服务" style="rounded=1;whiteSpace=wrap;html=1;strokeWidth=3;fontFamily=Verdana;align=center;fillColor=#60a917;strokeColor=#2D7600;fontColor=#ffffff;" parent="1" vertex="1">
          <mxGeometry x="470" y="810" width="100" height="100" as="geometry" />
        </mxCell>
        <mxCell id="unxmOJQ1eHxqmyFc98eH-61" value="授权服务" style="rounded=1;whiteSpace=wrap;html=1;strokeWidth=3;fontFamily=Verdana;align=center;fillColor=#60a917;strokeColor=#2D7600;fontColor=#ffffff;" parent="1" vertex="1">
          <mxGeometry x="600" y="570" width="100" height="100" as="geometry" />
        </mxCell>
        <mxCell id="unxmOJQ1eHxqmyFc98eH-62" value="短信服务" style="rounded=1;whiteSpace=wrap;html=1;strokeWidth=3;fontFamily=Verdana;align=center;fillColor=#60a917;strokeColor=#2D7600;fontColor=#ffffff;" parent="1" vertex="1">
          <mxGeometry x="730" y="570" width="100" height="100" as="geometry" />
        </mxCell>
        <mxCell id="unxmOJQ1eHxqmyFc98eH-63" value="咨询服务" style="rounded=1;whiteSpace=wrap;html=1;strokeWidth=3;fontFamily=Verdana;align=center;fillColor=#60a917;strokeColor=#2D7600;fontColor=#ffffff;" parent="1" vertex="1">
          <mxGeometry x="600" y="690" width="100" height="100" as="geometry" />
        </mxCell>
        <mxCell id="unxmOJQ1eHxqmyFc98eH-65" value="数据概览" style="shape=ext;rounded=1;html=1;whiteSpace=wrap;strokeWidth=3;fillColor=#dae8fc;strokeColor=#6c8ebf;" parent="1" vertex="1">
          <mxGeometry x="97.5" y="610" width="80" height="40" as="geometry" />
        </mxCell>
        <mxCell id="unxmOJQ1eHxqmyFc98eH-66" value="" style="edgeStyle=orthogonalEdgeStyle;rounded=0;orthogonalLoop=1;jettySize=auto;html=1;fontFamily=Verdana;" parent="1" source="unxmOJQ1eHxqmyFc98eH-30" target="unxmOJQ1eHxqmyFc98eH-65" edge="1">
          <mxGeometry relative="1" as="geometry">
            <mxPoint x="137.5" y="670" as="sourcePoint" />
            <mxPoint x="137.5" y="590" as="targetPoint" />
          </mxGeometry>
        </mxCell>
        <mxCell id="unxmOJQ1eHxqmyFc98eH-67" value="量表管理" style="rounded=1;whiteSpace=wrap;html=1;strokeWidth=3;fontFamily=Verdana;align=center;fillColor=#60a917;strokeColor=#2D7600;fontColor=#ffffff;" parent="1" vertex="1">
          <mxGeometry x="600" y="810" width="100" height="100" as="geometry" />
        </mxCell>
        <mxCell id="unxmOJQ1eHxqmyFc98eH-68" value="角色管理" style="rounded=1;whiteSpace=wrap;html=1;strokeWidth=3;fontFamily=Verdana;align=center;fillColor=#60a917;strokeColor=#2D7600;fontColor=#ffffff;" parent="1" vertex="1">
          <mxGeometry x="730" y="690" width="100" height="100" as="geometry" />
        </mxCell>
        <mxCell id="unxmOJQ1eHxqmyFc98eH-70" value="科室管理" style="rounded=1;whiteSpace=wrap;html=1;strokeWidth=3;fontFamily=Verdana;align=center;fillColor=#60a917;strokeColor=#2D7600;fontColor=#ffffff;" parent="1" vertex="1">
          <mxGeometry x="730" y="810" width="100" height="100" as="geometry" />
        </mxCell>
        <mxCell id="kRzP6o5eXCQYQ1YS_xEf-1" value="MYSQL" style="strokeWidth=2;html=1;shape=mxgraph.flowchart.database;whiteSpace=wrap;fontFamily=Verdana;align=center;fillColor=#fa6800;strokeColor=#C73500;fontColor=#ffffff;" vertex="1" parent="1">
          <mxGeometry x="940" y="540" width="100" height="80" as="geometry" />
        </mxCell>
        <mxCell id="kRzP6o5eXCQYQ1YS_xEf-4" value="REDIS" style="strokeWidth=2;html=1;shape=mxgraph.flowchart.database;whiteSpace=wrap;fontFamily=Verdana;align=center;fillColor=#fa6800;strokeColor=#C73500;fontColor=#ffffff;" vertex="1" parent="1">
          <mxGeometry x="940" y="680" width="100" height="80" as="geometry" />
        </mxCell>
        <mxCell id="kRzP6o5eXCQYQ1YS_xEf-5" value="ES" style="strokeWidth=2;html=1;shape=mxgraph.flowchart.database;whiteSpace=wrap;fontFamily=Verdana;align=center;fillColor=#fa6800;strokeColor=#C73500;fontColor=#ffffff;" vertex="1" parent="1">
          <mxGeometry x="940" y="820" width="100" height="80" as="geometry" />
        </mxCell>
      </root>
    </mxGraphModel>
  </diagram>
</mxfile>
